<svg width="20" height="20" viewBox="0 0 20 20" fill="none" xmlns="http://www.w3.org/2000/svg">
<path d="M18.0645 2.6087H17.7419V1.73913C17.7419 0.78 17.1632 0 16.4516 0H12.9032C11.881 0 10.8665 0.396087 10 1.12304C9.13355 0.396087 8.11903 0 7.09677 0H3.54839C2.83677 0 2.25806 0.78 2.25806 1.73913V2.6087H1.93548C0.868064 2.6087 0 3.7787 0 5.21739V17.3913C0 18.83 0.868064 20 1.93548 20H18.0645C19.1319 20 20 18.83 20 17.3913V5.21739C20 3.7787 19.1319 2.6087 18.0645 2.6087ZM16.4516 1.73913V15.2174H12.9032C12.1255 15.2174 11.3523 15.4461 10.6452 15.8752V2.6287C11.3161 2.05261 12.1065 1.73913 12.9032 1.73913H16.4516ZM3.54839 1.73913H7.09677C7.89355 1.73913 8.68387 2.05261 9.35484 2.6287V15.8752C8.64774 15.4461 7.87452 15.2174 7.09677 15.2174H3.54839V1.73913ZM1.29032 17.3913V5.21739C1.29032 4.73783 1.57968 4.34783 1.93548 4.34783H2.25806V15.2174C2.25806 16.1765 2.83677 16.9565 3.54839 16.9565H7.09677C7.89355 16.9565 8.68387 17.2713 9.35484 17.8478V18.2609H1.93548C1.57968 18.2609 1.29032 17.8709 1.29032 17.3913ZM18.7097 17.3913C18.7097 17.8709 18.4203 18.2609 18.0645 18.2609H10.6452V17.8478C11.3161 17.2713 12.1065 16.9565 12.9032 16.9565H16.4516C17.1632 16.9565 17.7419 16.1765 17.7419 15.2174V4.34783H18.0645C18.4203 4.34783 18.7097 4.73783 18.7097 5.21739V17.3913Z" fill="#341E4E"/>
<path d="M5.16176 4.78259H7.74241C8.09854 4.78259 8.38757 4.39302 8.38757 3.91302C8.38757 3.43302 8.09854 3.04346 7.74241 3.04346H5.16176C4.80563 3.04346 4.5166 3.43302 4.5166 3.91302C4.5166 4.39302 4.80563 4.78259 5.16176 4.78259ZM5.16176 8.26085H7.74241C8.09854 8.26085 8.38757 7.87128 8.38757 7.39128C8.38757 6.91128 8.09854 6.52172 7.74241 6.52172H5.16176C4.80563 6.52172 4.5166 6.91128 4.5166 7.39128C4.5166 7.87128 4.80563 8.26085 5.16176 8.26085ZM8.38757 10.8695C8.38757 10.3895 8.09854 9.99998 7.74241 9.99998H5.16176C4.80563 9.99998 4.5166 10.3895 4.5166 10.8695C4.5166 11.3495 4.80563 11.7391 5.16176 11.7391H7.74241C8.09854 11.7391 8.38757 11.3495 8.38757 10.8695ZM12.2585 4.78259H14.8392C15.1953 4.78259 15.4843 4.39302 15.4843 3.91302C15.4843 3.43302 15.1953 3.04346 14.8392 3.04346H12.2585C11.9024 3.04346 11.6134 3.43302 11.6134 3.91302C11.6134 4.39302 11.9024 4.78259 12.2585 4.78259ZM12.2585 8.26085H14.8392C15.1953 8.26085 15.4843 7.87128 15.4843 7.39128C15.4843 6.91128 15.1953 6.52172 14.8392 6.52172H12.2585C11.9024 6.52172 11.6134 6.91128 11.6134 7.39128C11.6134 7.87128 11.9024 8.26085 12.2585 8.26085ZM12.2585 11.7391H14.8392C15.1953 11.7391 15.4843 11.3495 15.4843 10.8695C15.4843 10.3895 15.1953 9.99998 14.8392 9.99998H12.2585C11.9024 9.99998 11.6134 10.3895 11.6134 10.8695C11.6134 11.3495 11.9024 11.7391 12.2585 11.7391Z" fill="#341E4E"/>
</svg>
