<svg width="269" height="317" viewBox="0 0 269 317" fill="none" xmlns="http://www.w3.org/2000/svg">
<g clip-path="url(#clip0_324_1227)">
<path d="M154.112 75.5044C154.377 67.54 155.658 62.8457 156.921 60.2607V75.8301C160.183 76.6445 162.952 78.9219 164.338 82.0928C166.768 87.6445 164.227 94.1445 158.672 96.5772C158.098 96.8276 157.508 97.0718 156.921 97.3179V121.833C156.921 124.638 159.193 126.909 161.995 126.909C164.798 126.909 167.071 124.638 167.071 121.833V84.7803H168.974V121.833C168.974 124.638 171.246 126.909 174.048 126.909C176.851 126.909 179.124 124.638 179.124 121.833V60.2813C179.366 60.7803 179.611 61.3525 179.854 62.0205C181.01 65.2275 181.983 70.4883 181.98 78.7012C181.981 80.9648 181.907 83.4512 181.748 86.1816C181.643 87.9922 183.024 89.5459 184.835 89.6514C184.9 89.6553 184.965 89.6572 185.029 89.6572C186.756 89.6572 188.203 88.3086 188.306 86.5635C188.472 83.7178 188.547 81.1045 188.548 78.7012C188.53 66.3125 186.552 59.4561 183.855 55.3325C182.505 53.2861 180.928 51.9727 179.472 51.2461C178.071 50.54 176.84 50.3799 176.1 50.3711C176.05 50.3682 176.001 50.3633 175.951 50.3633H160.093C160.04 50.3633 159.989 50.3682 159.936 50.3711C159.195 50.3809 157.967 50.5415 156.57 51.2451C154.362 52.3408 151.982 54.7363 150.317 58.9805C148.711 63.0391 147.609 68.8296 147.504 77.4111C148.291 77.0874 149.077 76.7622 149.848 76.4238C151.207 75.8286 152.64 75.5239 154.112 75.5044Z" fill="white"/>
<path d="M158.785 38.7891C158.785 43.8887 162.921 48.0244 168.021 48.0244C173.123 48.0244 177.257 43.8887 177.257 38.7891C177.257 33.6875 173.123 29.5527 168.021 29.5527C162.921 29.5527 158.785 33.6875 158.785 38.7891Z" fill="white"/>
<path d="M31.5176 209.555C36.457 205.448 42.7998 202.975 49.7099 202.975C51.959 202.975 54.1455 203.245 56.2461 203.739V178.666H60.8808V205.258C71.0586 209.611 78.2099 219.723 78.2099 231.475C78.2099 240.439 74.0459 248.444 67.5556 253.672H69.0283C69.2334 253.672 69.4346 253.68 69.6348 253.692C72.1396 253.746 75.9756 254.281 80.3076 256.471C82.1455 257.387 83.918 258.552 85.6094 259.916V110.248C90.4385 109.799 97.2558 109.046 105.146 107.83C120.71 105.418 140.379 101.282 157.468 93.8301C161.513 92.0576 163.36 87.3398 161.588 83.2915C159.818 79.2441 155.101 77.3994 151.054 79.1719C136.143 85.7139 117.479 89.7559 102.711 92.0166C95.3193 93.1572 88.8877 93.8701 84.3301 94.2979C82.0517 94.5107 80.2422 94.6533 79.0107 94.7402C78.5439 94.7734 78.1689 94.7988 77.8818 94.8174H39.2461C39.1426 94.8174 39.042 94.8291 38.9394 94.8325C37.1416 94.8477 34.1103 95.2275 30.6631 96.9668C25.2842 99.6348 19.4873 105.469 15.4306 115.807C11.3223 126.188 8.56438 141.192 8.55078 163.853C8.55368 169.71 8.74018 176.078 9.14648 183.013C9.39648 187.264 12.9219 190.544 17.126 190.544C17.2842 190.544 17.4433 190.539 17.6025 190.529C22.0137 190.271 25.3789 186.484 25.1201 182.076C24.7285 175.427 24.5527 169.367 24.5527 163.853C24.5176 139.632 28.0488 126.027 31.5176 118.93V209.555Z" fill="white"/>
<path d="M58.5625 89.1191C70.9889 89.1191 81.0625 79.0456 81.0625 66.6191C81.0625 54.1927 70.9889 44.1191 58.5625 44.1191C46.1361 44.1191 36.0625 54.1927 36.0625 66.6191C36.0625 79.0456 46.1361 89.1191 58.5625 89.1191Z" fill="white"/>
<path d="M99.7607 146.473H254.434V0H35.4336V36.6655H39.4355V3.999H250.432V142.469L99.7607 142.472V146.473Z" fill="white"/>
<path d="M46.041 253.672H53.3809C64.0615 251.919 72.2109 242.649 72.2109 231.475C72.2109 219.047 62.1387 208.975 49.7109 208.975C37.2852 208.975 27.2109 219.047 27.2109 231.475C27.2109 242.649 35.3613 251.919 46.041 253.672Z" fill="white"/>
<path d="M156.711 231.475C156.711 219.047 146.639 208.975 134.211 208.975C121.785 208.975 111.711 219.047 111.711 231.475C111.711 242.649 119.861 251.919 130.541 253.672H137.881C148.562 251.919 156.711 242.649 156.711 231.475Z" fill="white"/>
<path d="M22.666 283.789V316.561H76.7578V283.836C77.3506 285.051 77.9492 286.445 78.5391 288.072C80.7383 294.168 82.6592 303.331 83.3945 316.561H100.514C101.446 299.776 104.326 289.6 107.166 283.789V316.561H161.258V283.834C161.851 285.051 162.449 286.445 163.039 288.072C165.238 294.168 167.159 303.331 167.895 316.561H185.014C185.946 299.776 188.826 289.6 191.666 283.789V316.561H245.758V283.834C246.351 285.051 246.949 286.445 247.539 288.072C249.738 294.168 251.659 303.331 252.395 316.561H268.413C267.258 293.89 262.915 280.386 257.283 271.779C253.998 266.793 250.156 263.596 246.605 261.824C243.189 260.1 240.184 259.713 238.381 259.689C238.264 259.686 238.148 259.672 238.029 259.672H222.824C221.481 259.867 220.108 259.973 218.711 259.973C217.314 259.973 215.941 259.867 214.598 259.672H199.395C199.261 259.672 199.131 259.686 198.998 259.691C197.191 259.719 194.207 260.113 190.815 261.824C185.809 264.305 180.443 269.533 176.452 278.576C175.313 276.018 174.083 273.766 172.783 271.779C169.498 266.793 165.656 263.596 162.104 261.824C158.689 260.1 155.684 259.713 153.881 259.689C153.764 259.686 153.648 259.672 153.529 259.672H114.895C114.761 259.672 114.631 259.686 114.498 259.691C112.691 259.719 109.707 260.113 106.315 261.824C101.309 264.305 95.9434 269.533 91.9522 278.576C90.8135 276.018 89.583 273.766 88.2832 271.779C84.9981 266.793 81.1563 263.596 77.6035 261.824C74.1885 260.1 71.1836 259.713 69.3809 259.689C69.2637 259.686 69.1484 259.672 69.0293 259.672H30.3945C30.2598 259.672 30.1289 259.686 29.9971 259.691C28.1904 259.719 25.207 260.113 21.8154 261.824C16.4346 264.49 10.6367 270.324 6.5781 280.666C3.2539 289.065 0.8164 300.498 0 316.561H16.0137C16.9463 299.776 19.8262 289.601 22.666 283.789Z" fill="white"/>
<path d="M218.711 253.975C231.137 253.975 241.211 243.901 241.211 231.475C241.211 219.048 231.137 208.975 218.711 208.975C206.285 208.975 196.211 219.048 196.211 231.475C196.211 243.901 206.285 253.975 218.711 253.975Z" fill="white"/>
<path d="M129.762 34.8672H106.762V38.8672H129.762V34.8672Z" fill="white"/>
<path d="M215.172 22.1172H192.172V26.1172H215.172V22.1172Z" fill="white"/>
<path d="M94.1719 13.3096H50.1719V17.3096H94.1719V13.3096Z" fill="white"/>
<path d="M77.2617 22.8096H50.1719V26.8096H77.2617V22.8096Z" fill="white"/>
<path d="M144.763 57.5343V55.5333H125.076L118.676 41.127L116.85 41.9391H116.848L123.776 57.5343H144.763Z" fill="white"/>
<path d="M182.922 40.3662H198.239L204.781 29.3774L203.065 28.3559L203.062 28.3535L197.103 38.3662H182.922V40.3662Z" fill="white"/>
<path d="M233.426 51.1172H210.426V55.1172H233.426V51.1172Z" fill="white"/>
<path d="M223.037 58.3784L221.319 57.3569V57.3545L215.357 67.3672H193.922V69.3672H216.495L223.037 58.3784Z" fill="white"/>
<path d="M227.094 108.033H204.094V112.033H227.094V108.033Z" fill="white"/>
<path d="M187.59 95.7827H209.027L214.988 105.794L216.705 104.772L210.164 93.7822H187.59V95.7827Z" fill="white"/>
<path d="M135.254 127.616H112.254V131.616H135.254V127.616Z" fill="white"/>
<path d="M130.323 115.366H151.764V113.365H129.188L122.648 124.355L124.364 125.378V125.376L130.323 115.366Z" fill="white"/>
</g>
<defs>
<clipPath id="clip0_324_1227">
<rect width="268.413" height="316.561" fill="white"/>
</clipPath>
</defs>
</svg>
