<svg width="107" height="238" viewBox="0 0 107 238" fill="none" xmlns="http://www.w3.org/2000/svg">
<g clip-path="url(#clip0_324_1282)">
<path d="M26.4566 142.781V126.818V107.88V96.4058C20.9849 97.7241 16.795 98.3276 13.1646 98.3633H13.1509H13.1372C11.2037 98.3584 9.64509 98.1875 8.08599 97.8076C5.84179 97.2549 3.97219 96.3262 2.35649 94.9756C2.24219 94.8794 2.17629 94.7446 2.14259 94.585C0.984894 98.5171 0.483894 102.934 0.979494 107.9C2.09279 119.056 12.8829 137.986 26.4566 142.781Z" fill="white"/>
<path d="M74.8198 50.6982H44.0258C44.0927 52.1226 44.1684 54.3486 44.1684 57.123C44.1665 61.5347 43.9775 67.3276 43.2412 73.4927C43.1533 74.228 43.0698 75.0205 42.9877 75.8359C44.2656 76.9971 45.2548 78.4941 45.8046 80.2344C47.249 84.8042 45.2246 89.6514 41.2182 91.9336C40.3505 97.4331 39.1206 102.737 36.4414 106.963C34.7558 109.673 31.9726 112.059 28.457 112.732V224.82C28.457 231.65 33.9941 237.183 40.8203 237.183C47.6484 237.183 53.1855 231.65 53.1855 224.82V134.548H57.8203V224.82C57.8203 231.65 63.3574 237.183 70.1835 237.183C77.0112 237.183 82.5483 231.65 82.5483 224.82V72.3525C83.1987 73.3926 83.872 74.6518 84.5483 76.1606C84.9731 77.1089 85.3984 78.1455 85.8198 79.3076C88.6376 87.1211 91.0092 99.9375 90.999 119.946C90.999 125.46 90.8217 131.516 90.4335 138.17C90.1777 142.58 93.5444 146.366 97.9555 146.622C98.1142 146.631 98.2729 146.635 98.4296 146.635C102.635 146.636 106.16 143.352 106.409 139.102C106.811 132.169 106.999 125.802 106.999 119.946C106.959 89.7632 102.138 73.0596 95.5649 63.0151C92.2807 58.0298 88.4375 54.8325 84.8872 53.0591C83.8725 52.5478 82.8999 52.1645 81.9775 51.8628C79.7856 51.145 77.9194 50.9404 76.6513 50.9258C76.0634 50.7827 75.4521 50.6982 74.8198 50.6982Z" fill="white"/>
<path d="M29.725 102.618C30.8378 100.928 31.8403 98.1073 32.5629 94.7939C31.1181 95.2045 29.7548 95.5736 28.457 95.9081V104.123C28.8471 103.781 29.2514 103.303 29.725 102.618Z" fill="white"/>
<path d="M55.5039 0C43.0776 0 33.0039 10.0732 33.0039 22.5C33.0039 34.9268 43.0776 45 55.5039 45C67.9302 45 78.0044 34.9268 78.0044 22.5C78.0044 10.0732 67.9301 0 55.5039 0Z" fill="white"/>
<path d="M3.63955 93.4444V93.4425C5.28355 94.8175 7.00525 95.4815 8.55605 95.8653C10.1225 96.2442 11.6044 96.3585 13.1435 96.3634C19.1835 96.3038 26.7963 94.586 38.6796 90.8761C42.893 89.544 45.2289 85.0509 43.8974 80.837C42.5663 76.6241 38.0722 74.2882 33.8593 75.6192C22.7729 79.1661 15.7241 80.422 13.1435 80.3624C13.0629 80.3624 13.0058 80.3595 12.936 80.3575C15.041 79.6544 20.1513 77.9537 26.4565 75.9059V75.6446C27.1215 75.0709 27.789 74.506 28.4565 73.9474V75.2574C30.0063 74.7564 31.6108 74.2398 33.2495 73.7159C33.895 73.5113 34.5522 73.38 35.2148 73.3087C35.2431 73.0577 35.269 72.7901 35.2978 72.545C35.9824 66.8033 36.1674 61.3004 36.1674 57.1231C36.1674 54.7999 36.1118 52.8863 36.0561 51.5645C36.0312 50.9713 36.0073 50.5118 35.9877 50.1769C34.27 50.1109 32.5185 50.5885 31.0146 51.67C30.9687 51.7037 29.5429 52.7291 27.3417 54.3971C24.6015 56.4742 20.6572 59.5499 16.6489 62.9728C13.0253 66.0763 9.36215 69.4288 6.35295 72.8106C4.84365 74.5138 3.48715 76.213 2.33635 78.1192C1.24015 80.0509 0.0868543 82.1495 0.00725426 85.5636C-0.0967457 87.7423 0.923254 90.6178 2.69615 92.5543C2.70305 92.5411 2.70985 92.5279 2.71665 92.5143C2.99695 92.8424 3.29925 93.1573 3.63955 93.4444Z" fill="white"/>
</g>
<defs>
<clipPath id="clip0_324_1282">
<rect width="106.998" height="237.183" fill="white"/>
</clipPath>
</defs>
</svg>
