<svg width="20" height="20" viewBox="0 0 20 20" fill="none" xmlns="http://www.w3.org/2000/svg">
<path d="M18.6115 17.1914C19.2378 16.3518 19.6676 15.3822 19.8692 14.3543C20.0708 13.3263 20.039 12.2662 19.7762 11.2522C19.5133 10.2382 19.0261 9.2961 18.3506 8.49554C17.675 7.69497 16.8283 7.05632 15.873 6.62673C15.6649 5.42943 15.1867 4.29532 14.4746 3.31057C13.7625 2.32581 12.8354 1.51633 11.7636 0.943619C10.6918 0.370908 9.50363 0.0500409 8.28927 0.00539774C7.07491 -0.0392454 5.86635 0.19351 4.75542 0.685978C3.64449 1.17845 2.66042 1.91767 1.87798 2.84748C1.09554 3.77729 0.535324 4.87323 0.239892 6.05201C-0.0555399 7.2308 -0.0784126 8.46142 0.173012 9.65037C0.424437 10.8393 0.943544 11.9553 1.69089 12.9136L0.301664 14.2929C0.162983 14.4334 0.0690394 14.6119 0.0316861 14.8058C-0.00566725 14.9997 0.0152438 15.2003 0.0917806 15.3823C0.166759 15.5649 0.294086 15.7211 0.457715 15.8314C0.621344 15.9417 0.813953 16.001 1.01127 16.002H6.6981C7.26443 17.196 8.15732 18.2052 9.27341 18.9127C10.3895 19.6203 11.6831 19.9973 13.0046 20H19.0012C19.1986 19.999 19.3912 19.9396 19.5548 19.8294C19.7184 19.7191 19.8458 19.5628 19.9207 19.3803C19.9973 19.1983 20.0182 18.9977 19.9808 18.8038C19.9435 18.6099 19.8495 18.4314 19.7108 18.2909L18.6115 17.1914ZM6.00848 13.0035C6.00986 13.3382 6.03659 13.6724 6.08844 14.003H3.41993L3.76973 13.6632C3.86341 13.5703 3.93776 13.4597 3.9885 13.3379C4.03924 13.2161 4.06537 13.0855 4.06537 12.9535C4.06537 12.8216 4.03924 12.691 3.9885 12.5692C3.93776 12.4474 3.86341 12.3368 3.76973 12.2439C3.2096 11.6899 2.76554 11.0298 2.46351 10.3021C2.16148 9.57445 2.00755 8.79388 2.01071 8.00603C2.01071 6.41554 2.6425 4.89018 3.76709 3.76553C4.89168 2.64088 6.41696 2.00905 8.00737 2.00905C9.24836 2.00159 10.4605 2.38325 11.4734 3.10037C12.4862 3.81749 13.2489 4.83401 13.6542 6.00704C13.4343 6.00704 13.2245 6.00704 13.0046 6.00704C11.1491 6.00704 9.36962 6.74417 8.0576 8.05626C6.74557 9.36836 6.00848 11.1479 6.00848 13.0035ZM16.5426 18.001L16.5926 18.051H13.0046C11.8486 18.0489 10.729 17.6461 9.83667 16.9112C8.94432 16.1762 8.33436 15.1546 8.11071 14.0204C7.88706 12.8861 8.06355 11.7094 8.61011 10.6907C9.15667 9.672 10.0395 8.87431 11.1082 8.43352C12.1769 7.99273 13.3653 7.93612 14.4711 8.27333C15.5768 8.61054 16.5315 9.3207 17.1724 10.2828C17.8133 11.245 18.1008 12.3996 17.986 13.5499C17.8712 14.7003 17.3611 15.7753 16.5426 16.5917C16.3543 16.7763 16.2465 17.0277 16.2428 17.2914C16.2433 17.4236 16.2701 17.5544 16.3216 17.6762C16.3731 17.7981 16.4482 17.9084 16.5426 18.001Z" fill="#341E4E"/>
</svg>
