<svg width="20" height="20" viewBox="0 0 20 20" fill="none" xmlns="http://www.w3.org/2000/svg">
<path d="M18.9056 11.0667C18.8308 11.0233 18.7706 10.9602 18.7323 10.885C18.6939 10.8098 18.6791 10.7256 18.6894 10.6425C18.7068 10.4317 18.7164 10.2167 18.7164 10C18.7164 9.78333 18.7068 9.56833 18.6894 9.35583C18.6792 9.273 18.6941 9.1891 18.7325 9.11417C18.7708 9.03925 18.8309 8.97646 18.9056 8.93333C19.4079 8.65535 19.7745 8.19823 19.9248 7.66225C20.0751 7.12626 19.997 6.55515 19.7075 6.07417L18.4087 3.925C18.1162 3.44535 17.6366 3.09617 17.0752 2.95402C16.5137 2.81187 15.9163 2.88834 15.4137 3.16667C15.3424 3.20691 15.2605 3.22666 15.1778 3.22355C15.0951 3.22045 15.0151 3.19462 14.9474 3.14917C14.5625 2.89628 14.1571 2.67334 13.7349 2.4825C13.6584 2.44772 13.5942 2.3924 13.5501 2.32328C13.5059 2.25417 13.4838 2.17426 13.4865 2.09333C13.4858 1.53835 13.2549 1.00629 12.8444 0.613854C12.4339 0.221421 11.8774 0.000661614 11.2968 0L8.70278 0C8.12105 0.00110408 7.5636 0.223035 7.15299 0.616994C6.74238 1.01095 6.51224 1.54469 6.51316 2.10083C6.51334 2.17956 6.49018 2.25673 6.44637 2.32339C6.40255 2.39006 6.33988 2.44349 6.26561 2.4775C5.84306 2.66815 5.43729 2.89109 5.05226 3.14417C4.98345 3.18968 4.9024 3.21529 4.81878 3.21795C4.73516 3.22061 4.65251 3.2002 4.58069 3.15917C4.0778 2.88189 3.48034 2.8068 2.91958 2.9504C2.35881 3.09399 1.88061 3.44453 1.59002 3.925L0.292113 6.07417C0.00262298 6.55515 -0.0755253 7.12626 0.0748067 7.66225C0.225139 8.19823 0.591679 8.65535 1.09404 8.93333C1.16886 8.97674 1.22903 9.03982 1.26736 9.11503C1.30569 9.19025 1.32057 9.27442 1.31021 9.3575C1.29278 9.56833 1.28319 9.78333 1.28319 10C1.28319 10.2167 1.29278 10.4317 1.31021 10.6442C1.32044 10.727 1.30549 10.8109 1.26715 10.8858C1.22882 10.9608 1.16872 11.0235 1.09404 11.0667C0.591679 11.3447 0.225139 11.8018 0.0748067 12.3378C-0.0755253 12.8737 0.00262298 13.4449 0.292113 13.9258L1.59089 16.075C1.88257 16.5555 2.36182 16.9057 2.92338 17.0487C3.48494 17.1917 4.0829 17.1157 4.58592 16.8375C4.65712 16.7971 4.73904 16.7772 4.8218 16.7803C4.90455 16.7834 4.98459 16.8093 5.05226 16.855C5.4371 17.1079 5.84257 17.3308 6.26474 17.5217C6.34053 17.5562 6.40429 17.6108 6.44836 17.6791C6.49243 17.7474 6.51493 17.8264 6.51316 17.9067C6.51386 18.4617 6.74477 18.9937 7.15525 19.3861C7.56573 19.7786 8.12227 19.9993 8.70278 20H11.2968C11.8786 19.9989 12.436 19.777 12.8466 19.383C13.2572 18.989 13.4874 18.4553 13.4865 17.8992C13.4863 17.8204 13.5094 17.7433 13.5533 17.6766C13.5971 17.6099 13.6597 17.5565 13.734 17.5225C14.1566 17.3319 14.5623 17.1089 14.9474 16.8558C15.0162 16.8103 15.0972 16.7847 15.1808 16.782C15.2645 16.7794 15.3471 16.7998 15.4189 16.8408C15.922 17.1174 16.5192 17.1922 17.0798 17.0486C17.6403 16.9051 18.1185 16.555 18.4096 16.075L19.7075 13.9267C19.9973 13.4456 20.0756 12.8743 19.9252 12.3381C19.7749 11.8019 19.4082 11.3447 18.9056 11.0667ZM16.9731 10C16.9731 10.1708 16.9653 10.34 16.9513 10.5067C16.9166 10.9036 16.9998 11.3019 17.1913 11.6557C17.3828 12.0095 17.6749 12.3045 18.0339 12.5067C18.0847 12.5347 18.1292 12.5721 18.1649 12.6166C18.2006 12.6611 18.2268 12.7119 18.2419 12.766C18.257 12.8202 18.2609 12.8767 18.2531 12.9323C18.2454 12.9879 18.2263 13.0415 18.1969 13.09L16.9008 15.2383C16.8403 15.3365 16.7415 15.4077 16.6261 15.4363C16.5107 15.4649 16.3881 15.4486 16.2854 15.3908C15.9278 15.1953 15.5199 15.1 15.1083 15.1158C14.6967 15.1315 14.2981 15.2578 13.958 15.48C13.6501 15.6825 13.3257 15.8612 12.9879 16.0142C12.6147 16.1851 12.2998 16.4536 12.0795 16.7885C11.8593 17.1234 11.7426 17.5111 11.7431 17.9067C11.7431 18.0198 11.6961 18.1283 11.6124 18.2084C11.5287 18.2884 11.4152 18.3333 11.2968 18.3333H8.70278C8.64357 18.3331 8.585 18.3217 8.53044 18.2997C8.47588 18.2777 8.42642 18.2456 8.38492 18.2052C8.34342 18.1649 8.31071 18.117 8.28866 18.0645C8.26662 18.012 8.25568 17.9558 8.25649 17.8992C8.25545 17.5051 8.13798 17.1193 7.91761 16.7862C7.69723 16.4532 7.38292 16.1864 7.01088 16.0167C6.67348 15.8635 6.34936 15.6849 6.0416 15.4825C5.70044 15.2601 5.30052 15.1343 4.88787 15.1195C4.47522 15.1048 4.0666 15.2017 3.70903 15.3992C3.60646 15.4557 3.48463 15.4711 3.37025 15.4418C3.25587 15.4126 3.15827 15.3412 3.09886 15.2433L1.80619 13.0933C1.74705 12.9953 1.731 12.8788 1.76155 12.7695C1.79211 12.6601 1.86678 12.5668 1.96919 12.51C2.32822 12.3078 2.62027 12.0129 2.81179 11.6591C3.0033 11.3053 3.08649 10.907 3.05179 10.51C3.03436 10.34 3.02652 10.1708 3.02652 10C3.02652 9.82917 3.03436 9.66 3.04831 9.49333C3.083 9.09635 2.99981 8.69807 2.8083 8.34427C2.61679 7.99047 2.32473 7.69552 1.9657 7.49333C1.91491 7.46529 1.87039 7.42795 1.83471 7.38344C1.79902 7.33894 1.77286 7.28815 1.75772 7.23397C1.74258 7.17979 1.73876 7.12329 1.74648 7.0677C1.7542 7.01211 1.7733 6.95852 1.8027 6.91L3.09886 4.75917C3.12857 4.7103 3.16812 4.66755 3.21522 4.63339C3.26233 4.59923 3.31605 4.57434 3.37328 4.56015C3.43051 4.54597 3.49011 4.54278 3.54864 4.55076C3.60717 4.55875 3.66346 4.57775 3.71426 4.60667C4.07176 4.80236 4.47971 4.8978 4.89134 4.88203C5.30297 4.86626 5.70162 4.73992 6.0416 4.5175C6.34954 4.31496 6.67397 4.13634 7.01175 3.98333C7.38451 3.81253 7.69915 3.54446 7.9194 3.21005C8.13964 2.87564 8.25649 2.48851 8.25649 2.09333C8.25649 1.98017 8.30351 1.87165 8.3872 1.79163C8.4709 1.71162 8.58442 1.66667 8.70278 1.66667H11.2968C11.3561 1.66688 11.4146 1.67831 11.4692 1.7003C11.5237 1.72229 11.5732 1.7544 11.6147 1.79477C11.6562 1.83514 11.6889 1.88298 11.711 1.93551C11.733 1.98804 11.7439 2.04423 11.7431 2.10083C11.7442 2.49493 11.8616 2.88073 12.082 3.21379C12.3024 3.54685 12.6167 3.8136 12.9887 3.98333C13.3261 4.13653 13.6503 4.31514 13.958 4.5175C14.2993 4.73974 14.6992 4.86545 15.1118 4.88019C15.5244 4.89493 15.933 4.7981 16.2906 4.60083C16.3932 4.54429 16.515 4.52895 16.6294 4.55816C16.7438 4.58737 16.8414 4.65876 16.9008 4.75667L18.1934 6.90667C18.2526 7.00472 18.2686 7.1212 18.2381 7.23055C18.2075 7.3399 18.1328 7.4332 18.0304 7.49C17.6714 7.69219 17.3793 7.98714 17.1878 8.34094C16.9963 8.69473 16.9131 9.09302 16.9478 9.49C16.9653 9.66 16.9731 9.83333 16.9731 10Z" fill="#341E4E"/>
<path d="M9.99991 5.8335C9.13792 5.8335 8.29529 6.07787 7.57857 6.53571C6.86185 6.99355 6.30323 7.64429 5.97336 8.40565C5.64349 9.16701 5.55718 10.0048 5.72535 10.813C5.89351 11.6213 6.3086 12.3637 6.91812 12.9464C7.52764 13.5292 8.30422 13.926 9.14965 14.0868C9.99508 14.2475 10.8714 14.165 11.6678 13.8497C12.4641 13.5343 13.1448 13.0002 13.6237 12.315C14.1026 11.6298 14.3582 10.8243 14.3582 10.0002C14.3568 8.8955 13.8972 7.83646 13.0802 7.05535C12.2631 6.27423 11.1554 5.83482 9.99991 5.8335ZM9.99991 12.5002C9.48272 12.5002 8.97714 12.3535 8.5471 12.0788C8.11707 11.8041 7.7819 11.4137 7.58398 10.9569C7.38606 10.5001 7.33427 9.99739 7.43517 9.51244C7.53607 9.02748 7.78513 8.58203 8.15084 8.2324C8.51655 7.88276 8.9825 7.64466 9.48975 7.5482C9.99701 7.45174 10.5228 7.50124 11.0006 7.69046C11.4785 7.87968 11.8869 8.20011 12.1742 8.61124C12.4615 9.02236 12.6149 9.50571 12.6149 10.0002C12.6149 10.6632 12.3394 11.2991 11.849 11.7679C11.3586 12.2368 10.6935 12.5002 9.99991 12.5002Z" fill="#341E4E"/>
</svg>
