<svg width="20" height="20" viewBox="0 0 20 20" fill="none" xmlns="http://www.w3.org/2000/svg">
<path d="M16.25 0C17.2446 0 18.1984 0.395088 18.9016 1.09835C19.6049 1.80161 20 2.75544 20 3.75V16.25C20 17.2446 19.6049 18.1984 18.9016 18.9016C18.1984 19.6049 17.2446 20 16.25 20H3.75C2.75544 20 1.80161 19.6049 1.09835 18.9016C0.395089 18.1984 4.98359e-07 17.2446 4.98359e-07 16.25V14.0512L1.09875 15.15C1.5 15.5512 1.98 15.8375 2.5 16.0212V16.25C2.5 16.5815 2.6317 16.8995 2.86612 17.1339C3.10054 17.3683 3.41848 17.5 3.75 17.5H16.25C16.9412 17.5 17.5 16.9412 17.5 16.25V3.75C17.5 3.41848 17.3683 3.10054 17.1339 2.86612C16.8995 2.6317 16.5815 2.5 16.25 2.5H3.75C3.06 2.5 2.5 3.06 2.5 3.75V3.9775C1.98125 4.16125 1.50125 4.44625 1.09875 4.8475L4.98359e-07 5.94625V3.75C4.98359e-07 2.75544 0.395089 1.80161 1.09835 1.09835C1.80161 0.395088 2.75544 0 3.75 0L16.25 0ZM4.22875 6.34375C4.45704 6.43852 4.65214 6.59881 4.7894 6.80437C4.92667 7.00994 4.99995 7.25157 5 7.49875V8.75H8.75C9.08152 8.75 9.39946 8.8817 9.63388 9.11612C9.8683 9.35054 10 9.66848 10 10C10 10.6912 9.44125 11.25 8.75 11.25H5V12.4987C5 13.0037 4.695 13.4613 4.22875 13.6538C4.00019 13.7478 3.74892 13.7723 3.50651 13.724C3.2641 13.6758 3.04136 13.5569 2.86625 13.3825L0.36625 10.8825C0.250021 10.7666 0.157835 10.6288 0.0949838 10.4772C0.0321325 10.3255 -0.000146284 10.1629 4.98359e-07 9.99875C4.98359e-07 9.67875 0.122501 9.35875 0.36625 9.115L2.86625 6.615C3.04121 6.44032 3.26396 6.32135 3.50643 6.27308C3.7489 6.22481 4.00023 6.2494 4.22875 6.34375Z" fill="#341E4E"/>
</svg>
