<svg width="20" height="20" viewBox="0 0 20 20" fill="none" xmlns="http://www.w3.org/2000/svg">
<path d="M1.42857 17.5H2.85714V18.75C2.85714 19.0815 3.00765 19.3995 3.27556 19.6339C3.54347 19.8683 3.90683 20 4.28571 20H18.5714C18.9503 20 19.3137 19.8683 19.5816 19.6339C19.8495 19.3995 20 19.0815 20 18.75V3.75C20 3.41848 19.8495 3.10054 19.5816 2.86612C19.3137 2.6317 18.9503 2.5 18.5714 2.5H17.1429V1.25C17.1429 0.918479 16.9923 0.600537 16.7244 0.366117C16.4565 0.131696 16.0932 0 15.7143 0L1.42857 0C1.04969 0 0.686328 0.131696 0.418419 0.366117C0.15051 0.600537 0 0.918479 0 1.25V16.25C0 16.5815 0.15051 16.8995 0.418419 17.1339C0.686328 17.3683 1.04969 17.5 1.42857 17.5ZM15.7143 16.25H1.42857V1.25H15.7143V16.25ZM18.5714 3.75V18.75H4.28571V17.5H15.7143C16.0932 17.5 16.4565 17.3683 16.7244 17.1339C16.9923 16.8995 17.1429 16.5815 17.1429 16.25V3.75H18.5714ZM5.71429 4.375C5.71429 4.54076 5.78954 4.69973 5.9235 4.81694C6.05745 4.93415 6.23913 5 6.42857 5H13.5714C13.7609 5 13.9426 4.93415 14.0765 4.81694C14.2105 4.69973 14.2857 4.54076 14.2857 4.375C14.2857 4.20924 14.2105 4.05027 14.0765 3.93306C13.9426 3.81585 13.7609 3.75 13.5714 3.75H6.42857C6.23913 3.75 6.05745 3.81585 5.9235 3.93306C5.78954 4.05027 5.71429 4.20924 5.71429 4.375ZM3.57143 8.75H13.5714C13.7609 8.75 13.9426 8.68415 14.0765 8.56694C14.2105 8.44973 14.2857 8.29076 14.2857 8.125C14.2857 7.95924 14.2105 7.80027 14.0765 7.68306C13.9426 7.56585 13.7609 7.5 13.5714 7.5H3.57143C3.38199 7.5 3.20031 7.56585 3.06635 7.68306C2.9324 7.80027 2.85714 7.95924 2.85714 8.125C2.85714 8.29076 2.9324 8.44973 3.06635 8.56694C3.20031 8.68415 3.38199 8.75 3.57143 8.75ZM3.57143 11.25H13.5714C13.7609 11.25 13.9426 11.1842 14.0765 11.0669C14.2105 10.9497 14.2857 10.7908 14.2857 10.625C14.2857 10.4592 14.2105 10.3003 14.0765 10.1831C13.9426 10.0658 13.7609 10 13.5714 10H3.57143C3.38199 10 3.20031 10.0658 3.06635 10.1831C2.9324 10.3003 2.85714 10.4592 2.85714 10.625C2.85714 10.7908 2.9324 10.9497 3.06635 11.0669C3.20031 11.1842 3.38199 11.25 3.57143 11.25ZM3.57143 13.75H13.5714C13.7609 13.75 13.9426 13.6842 14.0765 13.5669C14.2105 13.4497 14.2857 13.2908 14.2857 13.125C14.2857 12.9592 14.2105 12.8003 14.0765 12.6831C13.9426 12.5658 13.7609 12.5 13.5714 12.5H3.57143C3.38199 12.5 3.20031 12.5658 3.06635 12.6831C2.9324 12.8003 2.85714 12.9592 2.85714 13.125C2.85714 13.2908 2.9324 13.4497 3.06635 13.5669C3.20031 13.6842 3.38199 13.75 3.57143 13.75Z" fill="#341E4E"/>
</svg>
