<svg id="Layer_1" xmlns="http://www.w3.org/2000/svg" xmlns:xlink="http://www.w3.org/1999/xlink" viewBox="0 0 48 48"><defs><style>.cls-1{fill:url(#linear-gradient);}.cls-2{fill:url(#linear-gradient-3);}.cls-3{fill:url(#linear-gradient-4);}.cls-4{fill:url(#linear-gradient-2);}.cls-5{fill:url(#radial-gradient);}</style><linearGradient id="linear-gradient" x1="24" y1="18.661" x2="24" y2="39.875" gradientTransform="matrix(1, 0, 0, 1, 0, 0)" gradientUnits="userSpaceOnUse"><stop offset="0" stop-color="#3e4154"></stop><stop offset="1" stop-color="#1b2129"></stop></linearGradient><linearGradient id="linear-gradient-2" x1="43" y1="27.202" x2="43" y2="22.637" gradientTransform="matrix(1, 0, 0, 1, 0, 0)" gradientUnits="userSpaceOnUse"><stop offset="0" stop-color="#edf1f2"></stop><stop offset="1" stop-color="#c6cbcc"></stop></linearGradient><linearGradient id="linear-gradient-3" x1="41.147" y1="31.812" x2="44.723" y2="37.035" gradientTransform="matrix(1, 0, 0, 1, 0, 0)" gradientUnits="userSpaceOnUse"><stop offset="0" stop-color="#fed200"></stop><stop offset="1" stop-color="#f59815"></stop></linearGradient><radialGradient id="radial-gradient" cx="42.152" cy="28.692" fx="42.152" fy="28.692" r="3.622" gradientTransform="matrix(1, 0, 0, 1, 0, 0)" gradientUnits="userSpaceOnUse"><stop offset="0" stop-color="#fed200"></stop><stop offset="1" stop-color="#f59815"></stop></radialGradient><linearGradient id="linear-gradient-4" y1="6.145" x2="24" y2="27.963" xlink:href="#linear-gradient"></linearGradient></defs><path class="cls-1" d="M38,19H10c-.552,0-1,.448-1,1v13.312c0,1.768,.92,3.406,2.402,4.276,3.802,2.232,8.159,3.412,12.598,3.412s8.796-1.18,12.598-3.412c1.481-.87,2.402-2.508,2.402-4.276v-13.312c0-.552-.448-1-1-1Z"></path><path class="cls-4" d="M43,29c-.552,0-1-.448-1-1v-9c0-.552,.448-1,1-1s1,.448,1,1v9c0,.552-.448,1-1,1Z"></path><path class="cls-2" d="M43,31c-1.378,0-2.5,1.122-2.5,2.5v2.5c0,.552,.448,1,1,1h3c.552,0,1-.448,1-1v-2.5c0-1.378-1.122-2.5-2.5-2.5Z"></path><circle class="cls-5" cx="43" cy="29.5" r="2.5"></circle><path class="cls-3" d="M46.036,15.237L25.948,6.738c-1.238-.524-2.658-.523-3.896,0L1.964,15.237c-1.129,.478-1.831,1.536-1.831,2.763s.702,2.285,1.831,2.763l20.088,8.499c.619,.262,1.284,.393,1.948,.393s1.329-.131,1.948-.393l20.088-8.499c1.129-.478,1.831-1.536,1.831-2.763s-.702-2.285-1.831-2.763Z"></path></svg>